<?xml version="1.0" encoding="utf-8"?>
<svg version="1.1" id="Layer_4" xmlns="http://www.w3.org/2000/svg" xmlns:xlink="http://www.w3.org/1999/xlink" x="0px" y="0px"
	 viewBox="0 0 448 448" enable-background="new 0 0 448 448" xml:space="preserve" role="img" aria-labelledby="title desc">
	 <title id="title">GDG Salvador</title>
	 <desc id="title">Grupo de Desenvolvedores Google de Salvador</desc>
<rect x="-121.71" role="presentation" fill="none" width="691.42" height="448"/>
<g>
	<g>
		<rect x="105.12" y="252.29" fill="#D5D5D5" width="234.1" height="24.79"/>
		<rect x="98.53" y="252.29" fill="#D5D5D5" width="247.29" height="6.36"/>
		<polygon fill="#585858" points="349.78,336.99 95.06,336.99 105.12,277.08 339.22,277.08 		"/>
		<linearGradient id="SVGID_1_" gradientUnits="userSpaceOnUse" x1="95.0588" y1="297.3384" x2="233.8787" y2="297.3384">
			<stop  offset="0" style="stop-color:#000000;stop-opacity:0"/>
			<stop  offset="1" style="stop-color:#000000"/>
		</linearGradient>
		<polygon opacity="0.3" fill="url(#SVGID_1_)" points="233.88,257.65 105.21,258.65 105.12,277.08 101.83,299.37 95.06,337.02
			133.89,337.02 216.44,336.47 		"/>
		<g>
			<g id="XMLID_14_">
				<g id="XMLID_15_">
					<polygon id="XMLID_16_" fill="#4A72B1" points="220.96,60.81 171.14,60.81 299.87,283.38 324.76,240.34 324.78,240.3 					"/>
				</g>
			</g>
			<path fill="#C4483B" d="M340.91,212.41c4.66-8.03,4.66-17.95,0-25.99L268.28,60.81h-47.32L324.78,240.3L340.91,212.41z"/>
			<path opacity="0.2" fill="#FFFFFF" enable-background="new    " d="M268.28,62.97l72.64,125.61c2.14,3.7,3.25,7.8,3.42,11.91
				c0.19-4.85-0.91-9.75-3.42-14.08L268.28,60.81h-97.13l1.26,2.17H268.28z"/>
		</g>
		<g>
			<polygon opacity="0.05" fill="#FFFFFF" points="268.28,62.97 238.13,82.66 238.13,119.62 316.81,144.73 			"/>
			<g>
				<path fill="#585858" d="M244.23,123.65H195.3c-0.56,0-1.01-0.45-1.01-1.01v-2.01c0-0.56,0.45-1.01,1.01-1.01h48.93
					c0.56,0,1.01,0.45,1.01,1.01v2.01C245.24,123.2,244.79,123.65,244.23,123.65z"/>
				<rect x="198.19" y="121.64" fill="#585858" width="43.15" height="7.51"/>
				<rect x="201.4" y="85.18" fill="#D5D5D5" width="36.73" height="34.44"/>
				<rect x="204.34" y="85.18" fill="#585858" width="30.85" height="34.44"/>
				<rect x="218.11" y="85.18" fill="#D5D5D5" width="3.32" height="34.44"/>
				<rect x="201.4" y="82.66" fill="#D5D5D5" width="36.73" height="2.52"/>
				<rect x="201.4" y="117.21" fill="#D5D5D5" width="36.73" height="2.52"/>
				<g>
					<polygon fill="#585858" points="192.29,160.32 192.28,160.37 246.7,160.37 246.7,160.32 					"/>
					<polygon fill="#D5D5D5" points="243.4,129.15 196.21,129.15 192.29,160.32 246.7,160.32 					"/>
					<polygon fill="#585858" points="188.33,191.76 250.02,191.76 246.7,160.37 192.28,160.37 					"/>
					<polygon fill="#D5D5D5" points="253.33,222.99 250.02,191.76 188.33,191.76 184.4,222.99 					"/>
					<polygon fill="#585858" points="184.38,223.15 180.46,254.38 256.65,254.38 253.34,223.15 					"/>
					<polygon fill="#585858" points="184.38,223.15 253.34,223.15 253.33,222.99 184.4,222.99 					"/>
				</g>
				<g opacity="0.1">
					<path fill="#FFFFFF" d="M253.33,222.99l-3.3-31.23l-3.32-31.39l-0.01-0.05l-3.3-31.18h-25.81v88.95
						c0,15.05,12.31,27.36,27.36,27.36h10.76l-2.36-22.3L253.33,222.99z"/>
				</g>
				<linearGradient id="SVGID_2_" gradientUnits="userSpaceOnUse" x1="212.1067" y1="103.7045" x2="221.916" y2="76.7535">
					<stop  offset="0" style="stop-color:#000000;stop-opacity:0"/>
					<stop  offset="1" style="stop-color:#000000"/>
				</linearGradient>
				<polygon opacity="0.3" fill="url(#SVGID_2_)" points="201.4,99.81 201.4,82.66 238.13,82.66 				"/>
			</g>
			<path fill="#464646" d="M238.65,82.89h-37.76c0-7.59,8.45-13.75,18.88-13.75C230.19,69.14,238.65,75.29,238.65,82.89z"/>
			<rect x="218.11" y="61.54" fill="#464646" width="4.05" height="9.42"/>
		</g>
		<g id="XMLID_10_">
			<g>
				<polygon id="XMLID_13_" fill="#E5B430" points="299.25,282.29 276.22,242.47 220.96,337.02 268.28,337.02 299.87,283.38 				"/>
				<polygon fill="#1F9354" points="251.32,199.41 276.22,242.47 220.96,337.02 171.14,337.02 				"/>
				<polygon opacity="0.2" fill="#B33817" enable-background="new    " points="268.28,334.85 222.21,334.85 220.96,337.02
					268.28,337.02 299.87,283.38 299.25,282.29 				"/>
				<polygon opacity="0.2" fill="#243137" enable-background="new    " points="172.4,334.85 171.14,337.02 220.96,337.02
					222.21,334.85 				"/>

					<radialGradient id="XMLID_3_" cx="299.5195" cy="167.4808" r="95.8613" gradientTransform="matrix(1 0 0 -1 0 450)" gradientUnits="userSpaceOnUse">
					<stop  offset="0" style="stop-color:#B33817;stop-opacity:0.2"/>
					<stop  offset="1" style="stop-color:#B33817;stop-opacity:0.02"/>
				</radialGradient>
				<polygon id="XMLID_12_" fill="url(#XMLID_3_)" points="299.87,283.38 299.87,283.38 276.22,242.47 270.42,252.49 				"/>

					<radialGradient id="XMLID_4_" cx="299.2473" cy="166.8746" r="96.6394" gradientTransform="matrix(1 0 0 -1 0 450)" gradientUnits="userSpaceOnUse">
					<stop  offset="0" style="stop-color:#243137;stop-opacity:0.2"/>
					<stop  offset="1" style="stop-color:#243137;stop-opacity:0.02"/>
				</radialGradient>
				<polygon id="XMLID_11_" fill="url(#XMLID_4_)" points="270.42,252.49 276.22,242.47 251.32,199.41 239.43,219.99 				"/>
			</g>
		</g>
	</g>
	<g>
		<g id="XMLID_1_">
			<path id="XMLID_9_" fill="#FFFFFF" d="M147.08,358.84h15.1c15.38,0,25.03,10.21,25.03,24.53c0,14.39-9.66,24.53-25.03,24.53
				h-15.1L147.08,358.84L147.08,358.84z M162.45,400.47c10.7,0,17.34-5.94,17.34-17.1c0-11.09-6.63-17.1-17.34-17.1h-7.93v34.19
				H162.45z"/>
			<path id="XMLID_7_" fill="#FFFFFF" d="M140.88,381.14h-23.53v7.28h16.59c-0.55,3.72-1.84,6.61-3.77,8.55
				c-2.46,2.46-6.3,5.16-13.03,5.16c-10.39,0-18.51-8.38-18.51-18.76c0-10.39,8.12-18.76,18.51-18.76c5.6,0,9.7,2.21,12.72,5.04
				l4.97-4.97c-4.22-4.03-9.82-7.12-17.69-7.12c-14.23,0-26.19,11.58-26.19,25.82c0,14.23,11.96,25.82,26.19,25.82
				c7.68,0,13.47-2.52,18.01-7.24c4.66-4.66,6.11-11.21,6.11-16.5C141.26,383.81,141.13,382.4,140.88,381.14z"/>
			<path id="XMLID_6_" fill="#FFFFFF" d="M241.96,381.14h-23.53v7.28h16.59c-0.55,3.72-1.84,6.61-3.77,8.55
				c-2.46,2.46-6.3,5.16-13.03,5.16c-10.39,0-18.51-8.38-18.51-18.76c0-10.39,8.12-18.76,18.51-18.76c5.6,0,9.7,2.21,12.72,5.04
				l4.97-4.97c-4.22-4.03-9.82-7.12-17.69-7.12c-14.23,0-26.19,11.58-26.19,25.82c0,14.23,11.96,25.82,26.19,25.82
				c7.68,0,13.47-2.52,18.01-7.24c4.66-4.66,6.11-11.21,6.11-16.5C242.34,383.81,242.22,382.4,241.96,381.14z"/>
		</g>
		<g>
			<g>
				<path fill="#FFFFFF" d="M262.84,408.69c-3.48,0-6.88-1.14-10.2-3.41c-3.32-2.27-5.5-5.46-6.52-9.57l5.62-2.27
					c0.67,2.63,2.04,4.85,4.11,6.66c2.07,1.81,4.4,2.71,6.99,2.71c2.68,0,4.96-0.7,6.86-2.11c1.9-1.4,2.84-3.31,2.84-5.72
					c0-2.68-0.95-4.74-2.84-6.19c-1.9-1.45-4.9-2.8-9-4.05c-4.24-1.34-7.45-3.07-9.63-5.18c-2.19-2.12-3.28-4.83-3.28-8.13
					c0-3.43,1.36-6.42,4.08-8.97c2.72-2.54,6.27-3.81,10.64-3.81c4.06,0,7.36,1.02,9.9,3.04c2.54,2.03,4.19,4.25,4.95,6.66
					l-5.62,2.34c-0.4-1.52-1.39-2.92-2.98-4.22c-1.58-1.29-3.62-1.94-6.12-1.94c-2.36,0-4.38,0.66-6.05,1.97
					c-1.67,1.32-2.51,2.96-2.51,4.92c0,1.78,0.77,3.29,2.31,4.52c1.54,1.23,3.8,2.33,6.79,3.31c2.36,0.76,4.34,1.5,5.92,2.21
					c1.58,0.71,3.19,1.66,4.82,2.84c1.63,1.18,2.85,2.65,3.68,4.42c0.82,1.76,1.24,3.8,1.24,6.12c0,2.32-0.48,4.39-1.44,6.22
					c-0.96,1.83-2.23,3.28-3.81,4.35c-1.58,1.07-3.29,1.89-5.12,2.44C266.63,408.41,264.76,408.69,262.84,408.69z"/>
				<path fill="#FFFFFF" d="M298.5,408.69c-3.48,0-6.88-1.14-10.2-3.41c-3.32-2.27-5.5-5.46-6.52-9.57l5.62-2.27
					c0.67,2.63,2.04,4.85,4.11,6.66c2.07,1.81,4.4,2.71,6.99,2.71c2.68,0,4.96-0.7,6.86-2.11c1.9-1.4,2.84-3.31,2.84-5.72
					c0-2.68-0.95-4.74-2.84-6.19c-1.9-1.45-4.9-2.8-9-4.05c-4.24-1.34-7.45-3.07-9.63-5.18c-2.19-2.12-3.28-4.83-3.28-8.13
					c0-3.43,1.36-6.42,4.08-8.97c2.72-2.54,6.27-3.81,10.64-3.81c4.06,0,7.36,1.02,9.9,3.04c2.54,2.03,4.19,4.25,4.95,6.66
					l-5.62,2.34c-0.4-1.52-1.39-2.92-2.98-4.22c-1.58-1.29-3.62-1.94-6.12-1.94c-2.36,0-4.38,0.66-6.05,1.97
					c-1.67,1.32-2.51,2.96-2.51,4.92c0,1.78,0.77,3.29,2.31,4.52c1.54,1.23,3.8,2.33,6.79,3.31c2.36,0.76,4.34,1.5,5.92,2.21
					c1.58,0.71,3.19,1.66,4.82,2.84c1.63,1.18,2.85,2.65,3.68,4.42c0.82,1.76,1.24,3.8,1.24,6.12c0,2.32-0.48,4.39-1.44,6.22
					c-0.96,1.83-2.23,3.28-3.81,4.35c-1.58,1.07-3.29,1.89-5.12,2.44C302.29,408.41,300.42,408.69,298.5,408.69z"/>
				<path fill="#FFFFFF" d="M313.96,407.62l18.06-47.91h6.96l18.06,47.91h-6.82l-4.62-12.98h-20.14l-4.68,12.98H313.96z
					 M327.54,388.88h15.92l-7.83-21.61h-0.27L327.54,388.88z"/>
			</g>
		</g>
	</g>
</g>
</svg>
