<?xml version="1.0" encoding="utf-8"?>
<!-- Generator: Adobe Illustrator 19.2.0, SVG Export Plug-In . SVG Version: 6.00 Build 0)  -->
<svg version="1.1" id="Layer_4" xmlns="http://www.w3.org/2000/svg" xmlns:xlink="http://www.w3.org/1999/xlink" x="0px" y="0px"
	 viewBox="0 0 691.42 448" enable-background="new 0 0 691.42 448" xml:space="preserve">
<rect display="none" fill="none" width="691.42" height="448"/>
<g>
	<rect x="111.29" y="258.04" fill="#D5D5D5" width="117.27" height="12.42"/>
	<rect x="107.99" y="258.04" fill="#D5D5D5" width="123.87" height="3.19"/>
	<polygon fill="#585858" points="233.85,300.47 106.25,300.47 111.29,270.46 228.56,270.46 	"/>
	<linearGradient id="SVGID_1_" gradientUnits="userSpaceOnUse" x1="106.2525" y1="280.9676" x2="175.7913" y2="280.9676">
		<stop  offset="0" style="stop-color:#000000;stop-opacity:0"/>
		<stop  offset="1" style="stop-color:#000000"/>
	</linearGradient>
	<polygon opacity="0.3" fill="url(#SVGID_1_)" points="175.79,261.23 111.34,261.23 111.29,270.46 109.64,281.62 106.25,300.49 
		125.7,300.49 167.06,300.71 	"/>
	<g>
		<g id="XMLID_14_">
			<g id="XMLID_15_">
				<polygon id="XMLID_16_" fill="#4A72B1" points="169.32,162.12 144.37,162.12 208.85,273.61 221.31,252.06 221.33,252.03 				"/>
			</g>
		</g>
		<path fill="#C4483B" d="M229.41,238.06c2.33-4.02,2.33-8.99,0-13.02l-36.39-62.92h-23.7l52.01,89.91L229.41,238.06z"/>
		<path opacity="0.2" fill="#FFFFFF" enable-background="new    " d="M193.02,163.21l36.39,62.92c1.07,1.86,1.63,3.91,1.71,5.97
			c0.1-2.43-0.46-4.88-1.71-7.05l-36.39-62.92h-48.66l0.63,1.08H193.02z"/>
	</g>
	<g>
		<polygon opacity="0.05" fill="#FFFFFF" points="193.02,163.21 177.92,173.07 177.92,191.58 217.33,204.16 		"/>
		<g>
			<path fill="#585858" d="M180.47,193.6h-23.5c-0.56,0-1.01-0.45-1.01-1.01l0,0c0-0.56,0.45-1.01,1.01-1.01h23.5
				c0.56,0,1.01,0.45,1.01,1.01l0,0C181.48,193.15,181.03,193.6,180.47,193.6z"/>
			<rect x="157.92" y="192.59" fill="#585858" width="21.61" height="3.76"/>
			<rect x="159.52" y="174.33" fill="#D5D5D5" width="18.4" height="17.25"/>
			<rect x="161" y="174.33" fill="#585858" width="15.45" height="17.25"/>
			<rect x="167.89" y="174.33" fill="#D5D5D5" width="1.66" height="17.25"/>
			<rect x="159.52" y="173.07" fill="#D5D5D5" width="18.4" height="1.26"/>
			<rect x="159.52" y="190.38" fill="#D5D5D5" width="18.4" height="1.26"/>
			<g>
				<polygon fill="#585858" points="154.96,211.97 154.95,212 182.22,212 182.21,211.97 				"/>
				<polygon fill="#D5D5D5" points="180.56,196.35 156.92,196.35 154.96,211.97 182.21,211.97 				"/>
				<polygon fill="#585858" points="152.98,227.72 183.88,227.72 182.22,212 154.95,212 				"/>
				<polygon fill="#D5D5D5" points="185.53,243.36 183.88,227.72 152.98,227.72 151.01,243.36 				"/>
				<polygon fill="#585858" points="151,243.44 149.03,259.09 187.2,259.09 185.54,243.44 				"/>
				<polygon fill="#585858" points="151,243.44 185.54,243.44 185.53,243.36 151.01,243.36 				"/>
			</g>
			<g opacity="0.1">
				<path fill="#FFFFFF" d="M185.53,243.36l-1.65-15.64L182.22,212l0-0.03l-1.65-15.62h-12.93v44.56c0,7.54,6.17,13.7,13.7,13.7
					h5.39l-1.18-11.17L185.53,243.36z"/>
			</g>
			<linearGradient id="SVGID_2_" gradientUnits="userSpaceOnUse" x1="164.885" y1="183.6097" x2="169.7988" y2="170.1092">
				<stop  offset="0" style="stop-color:#000000;stop-opacity:0"/>
				<stop  offset="1" style="stop-color:#000000"/>
			</linearGradient>
			<polygon opacity="0.3" fill="url(#SVGID_2_)" points="159.52,181.66 159.52,173.07 177.92,173.07 			"/>
		</g>
		<path fill="#464646" d="M178.18,173.18h-18.91c0-3.8,4.23-6.89,9.46-6.89C173.95,166.29,178.18,169.38,178.18,173.18z"/>
		<rect x="167.89" y="162.49" fill="#464646" width="2.03" height="4.72"/>
	</g>
	<g id="XMLID_10_">
		<g>
			<polygon id="XMLID_13_" fill="#E5B430" points="208.54,273.07 197,253.12 169.32,300.98 193.02,300.98 208.85,273.61 			"/>
			<polygon fill="#1F9354" points="184.53,231.55 197,253.12 169.32,300.98 144.37,300.98 			"/>
			<polygon opacity="0.2" fill="#B33817" enable-background="new    " points="193.02,299.9 169.95,299.9 169.32,300.98 
				193.02,300.98 208.85,273.61 208.54,273.07 			"/>
			<polygon opacity="0.2" fill="#243137" enable-background="new    " points="145,299.9 144.37,300.98 169.32,300.98 169.95,299.9 
							"/>
			
				<radialGradient id="XMLID_3_" cx="208.6726" cy="176.817" r="48.0196" gradientTransform="matrix(1 0 0 -1 0 450)" gradientUnits="userSpaceOnUse">
				<stop  offset="0" style="stop-color:#B33817;stop-opacity:0.2"/>
				<stop  offset="1" style="stop-color:#B33817;stop-opacity:0.02"/>
			</radialGradient>
			<polygon id="XMLID_12_" fill="url(#XMLID_3_)" points="208.85,273.61 208.85,273.61 197,253.12 194.1,258.14 			"/>
			
				<radialGradient id="XMLID_4_" cx="208.5362" cy="176.5134" r="48.4094" gradientTransform="matrix(1 0 0 -1 0 450)" gradientUnits="userSpaceOnUse">
				<stop  offset="0" style="stop-color:#243137;stop-opacity:0.2"/>
				<stop  offset="1" style="stop-color:#243137;stop-opacity:0.02"/>
			</radialGradient>
			<polygon id="XMLID_11_" fill="url(#XMLID_4_)" points="194.1,258.14 197,253.12 184.53,231.55 178.57,241.86 			"/>
		</g>
	</g>
</g>
<g>
	<g id="XMLID_1_">
		<path id="XMLID_9_" fill="#777777" d="M329.4,202.83h20.51c20.89,0,34,13.86,34,33.32c0,19.54-13.12,33.32-34,33.32H329.4
			L329.4,202.83L329.4,202.83z M350.27,259.37c14.54,0,23.55-8.07,23.55-23.22c0-15.06-9.01-23.22-23.55-23.22H339.5v46.44H350.27z"
			/>
		<path id="XMLID_7_" fill="#777777" d="M320.98,233.12h-31.96v9.89h22.53c-0.74,5.05-2.49,8.98-5.11,11.61
			c-3.34,3.34-8.55,7.01-17.7,7.01c-14.11,0-25.15-11.38-25.15-25.49s11.03-25.49,25.15-25.49c7.61,0,13.17,3,17.28,6.84l6.76-6.76
			c-5.73-5.48-13.34-9.67-24.03-9.67c-19.33,0-35.58,15.73-35.58,35.07c0,19.33,16.25,35.07,35.58,35.07
			c10.43,0,18.3-3.42,24.46-9.83c6.33-6.33,8.3-15.22,8.3-22.41C321.49,236.75,321.32,234.83,320.98,233.12z"/>
		<path id="XMLID_6_" fill="#777777" d="M458.28,233.12h-31.96v9.89h22.53c-0.74,5.05-2.49,8.98-5.11,11.61
			c-3.34,3.34-8.55,7.01-17.7,7.01c-14.11,0-25.15-11.38-25.15-25.49s11.03-25.49,25.15-25.49c7.61,0,13.17,3,17.28,6.84l6.76-6.76
			c-5.73-5.48-13.34-9.67-24.03-9.67c-19.33,0-35.58,15.73-35.58,35.07c0,19.33,16.25,35.07,35.58,35.07
			c10.43,0,18.3-3.42,24.46-9.83c6.33-6.33,8.3-15.22,8.3-22.41C458.8,236.75,458.62,234.83,458.28,233.12z"/>
	</g>
	<g>
		<g>
			<path fill="#585858" d="M486.64,270.54c-4.73,0-9.35-1.54-13.86-4.63c-4.51-3.09-7.47-7.42-8.86-13l7.63-3.09
				c0.91,3.58,2.77,6.59,5.59,9.04c2.82,2.45,5.98,3.68,9.5,3.68c3.64,0,6.74-0.95,9.32-2.86c2.57-1.91,3.86-4.5,3.86-7.77
				c0-3.64-1.29-6.44-3.86-8.41c-2.58-1.97-6.65-3.8-12.22-5.5c-5.76-1.82-10.12-4.17-13.09-7.04c-2.97-2.88-4.45-6.56-4.45-11.04
				c0-4.66,1.85-8.72,5.54-12.18c3.69-3.45,8.51-5.18,14.45-5.18c5.51,0,10,1.38,13.45,4.14c3.45,2.76,5.69,5.77,6.73,9.04
				l-7.63,3.18c-0.55-2.06-1.89-3.97-4.04-5.73c-2.15-1.76-4.92-2.64-8.32-2.64c-3.21,0-5.95,0.9-8.22,2.68
				c-2.27,1.79-3.41,4.01-3.41,6.68c0,2.42,1.05,4.47,3.14,6.13c2.09,1.67,5.16,3.17,9.22,4.5c3.21,1.03,5.89,2.03,8.04,3
				c2.15,0.97,4.33,2.26,6.54,3.86c2.21,1.61,3.88,3.61,5,6c1.12,2.39,1.68,5.17,1.68,8.32c0,3.15-0.65,5.97-1.95,8.45
				c-1.3,2.48-3.03,4.45-5.18,5.91c-2.15,1.45-4.47,2.56-6.95,3.32C491.79,270.16,489.25,270.54,486.64,270.54z"/>
			<path fill="#585858" d="M535.08,270.54c-4.73,0-9.35-1.54-13.86-4.63c-4.51-3.09-7.47-7.42-8.86-13l7.63-3.09
				c0.91,3.58,2.77,6.59,5.59,9.04c2.82,2.45,5.98,3.68,9.5,3.68c3.64,0,6.74-0.95,9.32-2.86c2.57-1.91,3.86-4.5,3.86-7.77
				c0-3.64-1.29-6.44-3.86-8.41c-2.58-1.97-6.65-3.8-12.22-5.5c-5.76-1.82-10.12-4.17-13.09-7.04c-2.97-2.88-4.45-6.56-4.45-11.04
				c0-4.66,1.85-8.72,5.54-12.18c3.69-3.45,8.51-5.18,14.45-5.18c5.51,0,10,1.38,13.45,4.14c3.45,2.76,5.69,5.77,6.73,9.04
				l-7.63,3.18c-0.55-2.06-1.89-3.97-4.04-5.73c-2.15-1.76-4.92-2.64-8.32-2.64c-3.21,0-5.95,0.9-8.22,2.68
				c-2.27,1.79-3.41,4.01-3.41,6.68c0,2.42,1.05,4.47,3.14,6.13c2.09,1.67,5.16,3.17,9.22,4.5c3.21,1.03,5.89,2.03,8.04,3
				c2.15,0.97,4.33,2.26,6.54,3.86c2.21,1.61,3.88,3.61,5,6c1.12,2.39,1.68,5.17,1.68,8.32c0,3.15-0.65,5.97-1.95,8.45
				c-1.3,2.48-3.03,4.45-5.18,5.91c-2.15,1.45-4.47,2.56-6.95,3.32C540.23,270.16,537.68,270.54,535.08,270.54z"/>
			<path fill="#585858" d="M556.07,269.08l24.54-65.07h9.45l24.54,65.07h-9.27l-6.27-17.63h-27.36l-6.36,17.63H556.07z
				 M574.52,243.63h21.63l-10.63-29.35h-0.36L574.52,243.63z"/>
		</g>
	</g>
</g>
</svg>
